<?xml version="1.0" encoding="UTF-8"?>
<svg id="Layer_1" xmlns="http://www.w3.org/2000/svg" version="1.1" viewBox="0 0 1000 369.77">
  <!-- Generator: Adobe Illustrator 29.8.4, SVG Export Plug-In . SVG Version: 2.1.1 Build 6)  -->
  <defs>
    <style>
      .st0 {
        fill: #0f0f0f;
      }
    </style>
  </defs>
  <path class="st0" d="M598.82,79.62c4.51,0,8.35-1.07,11.08-2.19,12.02-4.87,21-17.47,21.27-29.98.27-10.95-5.76-19.79-16.98-24.97-19.34-8.89-35.7-1.74-43.29,9.25-6.75,9.74-8.13,24.89,3.89,36.77,8.71,8.62,17.2,11.12,24.04,11.12Z"/>
  <path class="st0" d="M999.57,191.56c-1.29-12.94-4.73-20.24-10.47-22.39-9.02-3.33-19.81,6.98-30.28,16.97-5.15,4.89-10.47,9.99-13.75,11.27-7.19,2.85-21.8,3.49-26.31-1.02-.97-.97-2.09-2.74-.48-6.77,3.92-9.5,11.71-9.93,21.59-10.42,4.56-.21,9.34-.48,13.96-1.72,14.87-4.08,24.54-14.93,29.42-33.24,5.05-18.69,4.73-30.23-.97-37.48-6.55-8.38-19.55-10.15-38.5-9.93,4.99-32.06,1.18-52.14-11.06-58.2-12.99-6.39-33.24,4.13-57.08,29.64-2.74,2.95-5.48,7.03-8.38,11.38-4.13,6.17-8.43,12.51-12.4,15.03-5.48,3.44-11.44,3.87-17.72,4.3-4.24.27-8.59.59-12.73,1.88-1.29.43-2.79,1.02-4.56,1.77-2.85-3.01-6.66-4.89-11.33-5.69-8.11-1.45-20.78-.91-32-.48-5.1.21-9.99.43-14.01.43-1.02-.16-3.7-4.13-4.19-9.99-.21-2.74-.11-9.29,5.48-10.95,8.59-2.52,18.85.05,29.75,2.85,18.85,4.78,40.22,10.15,51.82-15.57,5.85-12.83,5.74-23.79-.27-32.54-16.59-24.32-73.78-23.14-90.85-22.18-34.1,1.88-55.57,9.99-67.71,25.56-10.95,14.01-13.85,33.77-8.86,60.46l-.7.91c-9.18-.91-17.5,3.49-24.32,12.78-12.94,17.66-16.59,47.47-10.47,59.44.91,1.88,2.36,3.17,4.03,4.13-2.47,2.04-5.26,4.99-8.32,8.27-6.66,7.09-14.98,16-21.37,16.05h-.11c-1.72,0-3.22-.64-4.67-2.09-5.32-5.37-3.01-21.96-.75-38.07,3.06-22.07,6.55-47.04-5.96-58.79-6.93-6.44-17.61-8.11-32.59-4.94-27.49,5.69-61.43,46.34-81.99,79.09-2.09,2.58-4.03,5.42-5.96,8.16-4.94,7.25-9.66,14.07-16.38,16.22-1.56.48-3.22.11-4.4-1.07-.54-.48-1.72-1.93-1.13-4.08,1.56-5.74,4.46-11.06,7.52-16.7,2.74-5.05,5.53-10.31,7.3-15.79,10.15-31.3,1.61-47.57-7.3-55.73-14.66-13.42-41.4-14.23-69.75-2.15-3.97,1.66-13.15,7.36-22.87,13.32-8.11,4.99-19.11,11.76-21.85,12.78-.48-.21-.64-.48-.75-.59-.97-1.56.11-5.53.7-7.62l.32-1.29c1.72-6.98,8.38-17.83,15.46-29.26,15.41-24.97,34.63-56,16.59-71.47-13.1-11.22-35.55-1.18-47.73,5.8-47.2,27.01-97.46,110.72-127.31,176.39-.86-1.45-1.77-2.85-2.74-4.08-8.43-10.95-19.71-17.29-29.64-22.82-6.98-3.92-13.58-7.62-18.58-12.51-3.33-3.22-3.97-5.53-3.49-6.5.59-1.29,3.65-2.42,8.81-1.88,2.79.27,5.42,1.83,8.27,3.49,2.58,1.56,5.26,3.17,8.32,3.81,12.24,2.68,19.49-1.23,23.46-4.99,6.44-6.07,9.02-16.27,7.19-28.03-1.99-12.35-11.81-22.34-27.76-28.14-25.5-9.34-65.94-6.93-89.29,13.32-14.28,12.35-19.65,29.37-15.52,49.24,1.07,5.26,3.71,10.15,6.28,14.87,4.08,7.62,8,14.82,5.1,22.98-2.31,1.56-4.19,2.26-5.58,1.99-2.25-.38-4.08-3.28-5.96-6.28-1.77-2.74-3.54-5.58-6.12-7.3-15.09-9.88-32.11,3.33-38.77,9.45C15.63,214.54.11,254.06,0,288.8c-.05,23.63,6.76,42.58,19.81,54.82,36.3,34.04,113.13,24.97,155.01-5.58.91-.7,2.04-.86,3.11-.54,1.02.38,1.83,1.18,2.15,2.2,6.71,21.32,27.92,28.62,71.04,24.59,21.69-2.04,36.3-9.83,47.41-25.29,2.9-4.13,7.09-13.32,11.97-24,7.03-15.41,20.03-44.03,26.36-44.03h.16c2.36,3.71-5.32,22.01-8.21,28.94-1.66,4.03-2.58,6.17-2.9,7.46-5.15,21.1-2.74,36.73,7.19,46.45,16.91,16.59,50.69,10.79,69.32,5.85,17.24-4.62,34.26-14.12,50.58-28.4,1.18-1.02,2.74-1.4,4.3-1.07,1.45.27,2.58,1.23,3.22,2.52,9.61,20.89,33.29,42.47,91.87,26.95,10.15-2.74,20.51-7.19,30.87-13.26,2.52-1.45,5.69-.8,7.36,1.5,5.05,7.09,12.99,12.13,23.03,14.5,20.57,4.94,85.59,3.6,105.4-2.2,17.18-4.99,29.1-13.8,36.4-26.9.43-.8,1.29-.91,1.56-.91.38-.11,1.02.11,1.4.8,9.66,16.81,27.06,28.46,50.42,33.67,8.64,1.93,17.77,2.9,27.12,2.9,29.26,0,60.35-9.34,84.51-26.2,38.61-26.9,79.52-93.32,79.52-143.52,0-2.9-.16-5.74-.43-8.48ZM809.71,176.69c-18.58,21.53-39.52,55.04-49.72,79.68-.21.48-.86,1.72-1.72,3.33-1.07-18.47-2.63-57.4.75-72.06,1.88-8.11,9.07-10.74,20.14-12.35,1.29-.16,2.58-.32,3.87-.48,3.97-.43,8.05-.91,12.03-2.52l1.61-.64c2.52-1.07,4.94-2.04,7.41-2.31h.64c2.42,0,4.89,1.29,5.85,3.17.27.48.38.97.38,1.45,0,.86-.43,1.77-1.23,2.74Z"/>
</svg>